<svg width="187" height="54" viewBox="0 0 187 54" fill="none" xmlns="http://www.w3.org/2000/svg">
<path d="M1.605 51L2.749 45.258H7.776L6.621 51H6.071L7.149 45.588L7.27 45.753H3.046L3.222 45.588L2.155 51H1.605ZM15.7721 51.044C15.2735 51.044 14.8445 50.956 14.4851 50.78C14.1331 50.5967 13.8655 50.3363 13.6821 49.999C13.4988 49.6543 13.4035 49.24 13.3961 48.756C13.3961 48.0667 13.5245 47.458 13.7811 46.93C14.0451 46.3947 14.4118 45.9767 14.8811 45.676C15.3578 45.368 15.9115 45.214 16.5421 45.214C17.0408 45.214 17.4735 45.3093 17.8401 45.5C18.2141 45.6907 18.5038 45.9657 18.7091 46.325C18.9218 46.6843 19.0281 47.1097 19.0281 47.601C19.0281 48.0997 18.9475 48.558 18.7861 48.976C18.6248 49.394 18.3975 49.757 18.1041 50.065C17.8181 50.373 17.4771 50.615 17.0811 50.791C16.6851 50.9597 16.2488 51.044 15.7721 51.044ZM12.2411 53.134L13.8141 45.258H14.3531L13.9901 47.051L13.6821 48.052L13.6051 49.108L12.7911 53.134H12.2411ZM15.7831 50.549C16.3038 50.549 16.7658 50.4243 17.1691 50.175C17.5725 49.9257 17.8878 49.581 18.1151 49.141C18.3498 48.6937 18.4671 48.1913 18.4671 47.634C18.4671 47.018 18.2875 46.545 17.9281 46.215C17.5761 45.8777 17.0775 45.709 16.4321 45.709C15.9188 45.709 15.4568 45.8337 15.0461 46.083C14.6428 46.3323 14.3238 46.677 14.0891 47.117C13.8545 47.557 13.7371 48.0593 13.7371 48.624C13.7371 49.2327 13.9168 49.7057 14.2761 50.043C14.6355 50.3803 15.1378 50.549 15.7831 50.549ZM26.4691 51.044C25.9558 51.044 25.5085 50.9487 25.1271 50.758C24.7458 50.56 24.4488 50.2813 24.2361 49.922C24.0308 49.5627 23.9281 49.141 23.9281 48.657C23.9281 47.997 24.0675 47.4103 24.3461 46.897C24.6321 46.3763 25.0208 45.9657 25.5121 45.665C26.0108 45.3643 26.5791 45.214 27.2171 45.214C27.7378 45.214 28.1851 45.313 28.5591 45.511C28.9405 45.7017 29.2338 45.9767 29.4391 46.336C29.6518 46.688 29.7581 47.1097 29.7581 47.601C29.7581 48.261 29.6151 48.8513 29.3291 49.372C29.0505 49.8853 28.6618 50.2923 28.1631 50.593C27.6718 50.8937 27.1071 51.044 26.4691 51.044ZM26.5131 50.549C27.0338 50.549 27.4958 50.4243 27.8991 50.175C28.3025 49.9257 28.6215 49.581 28.8561 49.141C29.0908 48.6937 29.2081 48.1913 29.2081 47.634C29.2081 47.018 29.0285 46.545 28.6691 46.215C28.3171 45.8777 27.8185 45.709 27.1731 45.709C26.6598 45.709 26.1978 45.8373 25.7871 46.094C25.3838 46.3433 25.0648 46.688 24.8301 47.128C24.5955 47.568 24.4781 48.0667 24.4781 48.624C24.4781 49.2327 24.6541 49.7057 25.0061 50.043C25.3655 50.3803 25.8678 50.549 26.5131 50.549ZM38.8953 51L37.0143 48.118L37.4763 47.909L39.5223 51H38.8953ZM34.6493 51L35.8043 45.258H36.3543L35.1993 51H34.6493ZM35.5623 48.338L35.6503 47.865H37.4543L37.3663 48.338H35.5623ZM37.4873 48.184L36.9483 48.096L39.8853 45.258H40.5343L37.4873 48.184ZM46.8356 51.044C46.3443 51.044 45.9116 50.9487 45.5376 50.758C45.1636 50.5673 44.874 50.2923 44.6686 49.933C44.4633 49.5737 44.3606 49.1483 44.3606 48.657C44.3606 48.1583 44.4376 47.7 44.5916 47.282C44.753 46.864 44.9803 46.501 45.2736 46.193C45.567 45.885 45.9116 45.6467 46.3076 45.478C46.7036 45.302 47.1363 45.214 47.6056 45.214C48.1116 45.214 48.5406 45.3057 48.8926 45.489C49.2446 45.665 49.5123 45.9253 49.6956 46.27C49.8863 46.6073 49.9816 47.018 49.9816 47.502C49.989 48.184 49.8606 48.7927 49.5966 49.328C49.34 49.8633 48.9733 50.285 48.4966 50.593C48.0273 50.8937 47.4736 51.044 46.8356 51.044ZM46.9456 50.549C47.4663 50.549 47.9283 50.4243 48.3316 50.175C48.735 49.9257 49.054 49.581 49.2886 49.141C49.5233 48.6937 49.6406 48.1913 49.6406 47.634C49.6406 47.018 49.461 46.545 49.1016 46.215C48.7496 45.8777 48.251 45.709 47.6056 45.709C47.0923 45.709 46.6303 45.8373 46.2196 46.094C45.8163 46.3433 45.4973 46.688 45.2626 47.128C45.028 47.568 44.9106 48.0667 44.9106 48.624C44.9106 49.2327 45.0866 49.7057 45.4386 50.043C45.798 50.3803 46.3003 50.549 46.9456 50.549ZM49.0356 51L49.3876 49.207L49.7066 48.206L49.7836 47.15L50.1576 45.258H50.7076L49.5636 51H49.0356ZM56.6749 51L57.7419 45.588L57.8739 45.753H55.4869L55.5859 45.258H60.6129L60.5139 45.753H58.1159L58.2919 45.588L57.2249 51H56.6749ZM70.8307 51L71.9857 45.258H74.3837C74.9703 45.258 75.414 45.3643 75.7147 45.577C76.0227 45.7897 76.1767 46.1013 76.1767 46.512C76.1767 47.0033 75.9713 47.3993 75.5607 47.7C75.1573 48.0007 74.6293 48.151 73.9767 48.151L74.1197 47.986C74.721 47.986 75.1573 48.085 75.4287 48.283C75.7 48.4737 75.8357 48.7817 75.8357 49.207C75.8357 49.7643 75.6157 50.2043 75.1757 50.527C74.7357 50.8423 74.1233 51 73.3387 51H70.8307ZM71.4577 50.549H73.3827C73.984 50.549 74.4533 50.4317 74.7907 50.197C75.128 49.955 75.2967 49.6213 75.2967 49.196C75.2967 48.8733 75.1903 48.646 74.9777 48.514C74.7723 48.3747 74.4313 48.305 73.9547 48.305H71.9087L71.4577 50.549ZM71.9967 47.876H73.8447C74.3727 47.876 74.798 47.7587 75.1207 47.524C75.4507 47.2893 75.6157 46.9777 75.6157 46.589C75.6157 46.2883 75.5057 46.0683 75.2857 45.929C75.0657 45.7823 74.7357 45.709 74.2957 45.709H72.4257L71.9967 47.876ZM83.7508 51.044C83.2155 51.044 82.7498 50.9487 82.3538 50.758C81.9578 50.56 81.6535 50.2813 81.4408 49.922C81.2355 49.5627 81.1328 49.1337 81.1328 48.635C81.1328 47.9823 81.2685 47.3993 81.5398 46.886C81.8185 46.3727 82.1925 45.9657 82.6618 45.665C83.1385 45.3643 83.6738 45.214 84.2678 45.214C84.7738 45.214 85.2065 45.3093 85.5658 45.5C85.9252 45.6907 86.2038 45.9657 86.4018 46.325C86.6072 46.677 86.7098 47.106 86.7098 47.612C86.7098 47.722 86.7025 47.832 86.6878 47.942C86.6732 48.052 86.6585 48.1547 86.6438 48.25H81.5508L81.6278 47.821H86.3798L86.1598 48.008C86.2405 47.502 86.2075 47.0803 86.0608 46.743C85.9142 46.3983 85.6832 46.138 85.3678 45.962C85.0598 45.7787 84.6895 45.687 84.2568 45.687C83.7582 45.687 83.3108 45.8153 82.9148 46.072C82.5262 46.3213 82.2218 46.666 82.0018 47.106C81.7818 47.5387 81.6718 48.041 81.6718 48.613C81.6718 49.2363 81.8515 49.7167 82.2108 50.054C82.5702 50.384 83.0982 50.549 83.7948 50.549C84.2055 50.549 84.5795 50.483 84.9168 50.351C85.2615 50.2117 85.5438 50.021 85.7638 49.779L86.0168 50.164C85.7675 50.4353 85.4412 50.6517 85.0378 50.813C84.6418 50.967 84.2128 51.044 83.7508 51.044ZM90.4207 50.978L90.5527 50.505C90.6114 50.5123 90.6627 50.5233 90.7067 50.538C90.7507 50.5453 90.7874 50.549 90.8167 50.549C91.0807 50.549 91.3154 50.4317 91.5207 50.197C91.7261 49.955 91.9204 49.5883 92.1037 49.097C92.2871 48.6057 92.4741 47.9787 92.6647 47.216L93.1597 45.258H97.1967L96.0417 51H95.4917L96.5697 45.566L96.7017 45.742H93.4127L93.5887 45.566L93.1597 47.293C92.9984 47.9457 92.8371 48.5103 92.6757 48.987C92.5144 49.4563 92.3421 49.845 92.1587 50.153C91.9827 50.461 91.7921 50.6883 91.5867 50.835C91.3887 50.9817 91.1614 51.055 90.9047 51.055C90.8241 51.055 90.7471 51.0477 90.6737 51.033C90.6004 51.0257 90.5161 51.0073 90.4207 50.978ZM104.622 51.044C104.109 51.044 103.661 50.9487 103.28 50.758C102.899 50.56 102.602 50.2813 102.389 49.922C102.184 49.5627 102.081 49.141 102.081 48.657C102.081 47.997 102.22 47.4103 102.499 46.897C102.785 46.3763 103.174 45.9657 103.665 45.665C104.164 45.3643 104.732 45.214 105.37 45.214C105.891 45.214 106.338 45.313 106.712 45.511C107.093 45.7017 107.387 45.9767 107.592 46.336C107.805 46.688 107.911 47.1097 107.911 47.601C107.911 48.261 107.768 48.8513 107.482 49.372C107.203 49.8853 106.815 50.2923 106.316 50.593C105.825 50.8937 105.26 51.044 104.622 51.044ZM104.666 50.549C105.187 50.549 105.649 50.4243 106.052 50.175C106.455 49.9257 106.774 49.581 107.009 49.141C107.244 48.6937 107.361 48.1913 107.361 47.634C107.361 47.018 107.181 46.545 106.822 46.215C106.47 45.8777 105.971 45.709 105.326 45.709C104.813 45.709 104.351 45.8373 103.94 46.094C103.537 46.3433 103.218 46.688 102.983 47.128C102.748 47.568 102.631 48.0667 102.631 48.624C102.631 49.2327 102.807 49.7057 103.159 50.043C103.518 50.3803 104.021 50.549 104.666 50.549ZM115.387 51.044C114.859 51.044 114.401 50.9487 114.012 50.758C113.623 50.56 113.323 50.2813 113.11 49.922C112.905 49.5627 112.802 49.141 112.802 48.657C112.802 47.9897 112.941 47.3993 113.22 46.886C113.506 46.3653 113.898 45.9583 114.397 45.665C114.896 45.3643 115.464 45.214 116.102 45.214C116.615 45.214 117.055 45.3057 117.422 45.489C117.796 45.665 118.082 45.9327 118.28 46.292L117.829 46.567C117.653 46.2737 117.418 46.0573 117.125 45.918C116.832 45.7787 116.48 45.709 116.069 45.709C115.541 45.709 115.072 45.8373 114.661 46.094C114.258 46.3433 113.939 46.688 113.704 47.128C113.469 47.568 113.352 48.0667 113.352 48.624C113.352 49.2327 113.532 49.7057 113.891 50.043C114.25 50.3803 114.764 50.549 115.431 50.549C115.812 50.549 116.168 50.4793 116.498 50.34C116.835 50.1933 117.114 49.9843 117.334 49.713L117.719 50.021C117.47 50.3437 117.136 50.5967 116.718 50.78C116.307 50.956 115.864 51.044 115.387 51.044ZM122.75 51L123.905 45.258H124.455L123.465 50.186L128.503 45.258H129.042L127.887 51H127.326L128.327 46.061L123.278 51H122.75ZM133.922 51L135.066 45.258H140.093L138.938 51H138.388L139.466 45.588L139.587 45.753H135.363L135.539 45.588L134.472 51H133.922ZM147.594 51.044C147.059 51.044 146.593 50.9487 146.197 50.758C145.801 50.56 145.497 50.2813 145.284 49.922C145.079 49.5627 144.976 49.1337 144.976 48.635C144.976 47.9823 145.112 47.3993 145.383 46.886C145.662 46.3727 146.036 45.9657 146.505 45.665C146.982 45.3643 147.517 45.214 148.111 45.214C148.617 45.214 149.05 45.3093 149.409 45.5C149.769 45.6907 150.047 45.9657 150.245 46.325C150.451 46.677 150.553 47.106 150.553 47.612C150.553 47.722 150.546 47.832 150.531 47.942C150.517 48.052 150.502 48.1547 150.487 48.25H145.394L145.471 47.821H150.223L150.003 48.008C150.084 47.502 150.051 47.0803 149.904 46.743C149.758 46.3983 149.527 46.138 149.211 45.962C148.903 45.7787 148.533 45.687 148.1 45.687C147.602 45.687 147.154 45.8153 146.758 46.072C146.37 46.3213 146.065 46.666 145.845 47.106C145.625 47.5387 145.515 48.041 145.515 48.613C145.515 49.2363 145.695 49.7167 146.054 50.054C146.414 50.384 146.942 50.549 147.638 50.549C148.049 50.549 148.423 50.483 148.76 50.351C149.105 50.2117 149.387 50.021 149.607 49.779L149.86 50.164C149.611 50.4353 149.285 50.6517 148.881 50.813C148.485 50.967 148.056 51.044 147.594 51.044ZM159.368 50.736L160.369 45.753H157.377L157.014 47.205C156.911 47.6083 156.801 48.0117 156.684 48.415C156.574 48.811 156.446 49.174 156.299 49.504C156.16 49.834 155.998 50.1017 155.815 50.307C155.639 50.505 155.434 50.6187 155.199 50.648L154.627 50.516C154.862 50.5307 155.071 50.4463 155.254 50.263C155.445 50.0723 155.613 49.8157 155.76 49.493C155.914 49.163 156.05 48.7927 156.167 48.382C156.292 47.9713 156.409 47.5533 156.519 47.128L156.981 45.258H161.018L159.918 50.736H159.368ZM154.022 52.43L154.407 50.516H160.886L160.512 52.43H159.984L160.259 51H154.825L154.55 52.43H154.022ZM168.616 51.044C168.102 51.044 167.655 50.9487 167.274 50.758C166.892 50.56 166.595 50.2813 166.383 49.922C166.177 49.5627 166.075 49.141 166.075 48.657C166.075 47.997 166.214 47.4103 166.493 46.897C166.779 46.3763 167.167 45.9657 167.659 45.665C168.157 45.3643 168.726 45.214 169.364 45.214C169.884 45.214 170.332 45.313 170.706 45.511C171.087 45.7017 171.38 45.9767 171.586 46.336C171.798 46.688 171.905 47.1097 171.905 47.601C171.905 48.261 171.762 48.8513 171.476 49.372C171.197 49.8853 170.808 50.2923 170.31 50.593C169.818 50.8937 169.254 51.044 168.616 51.044ZM168.66 50.549C169.18 50.549 169.642 50.4243 170.046 50.175C170.449 49.9257 170.768 49.581 171.003 49.141C171.237 48.6937 171.355 48.1913 171.355 47.634C171.355 47.018 171.175 46.545 170.816 46.215C170.464 45.8777 169.965 45.709 169.32 45.709C168.806 45.709 168.344 45.8373 167.934 46.094C167.53 46.3433 167.211 46.688 166.977 47.128C166.742 47.568 166.625 48.0667 166.625 48.624C166.625 49.2327 166.801 49.7057 167.153 50.043C167.512 50.3803 168.014 50.549 168.66 50.549ZM176.796 51L177.951 45.258H180.349C180.936 45.258 181.379 45.3643 181.68 45.577C181.988 45.7897 182.142 46.1013 182.142 46.512C182.142 47.0033 181.937 47.3993 181.526 47.7C181.123 48.0007 180.595 48.151 179.942 48.151L180.085 47.986C180.686 47.986 181.123 48.085 181.394 48.283C181.665 48.4737 181.801 48.7817 181.801 49.207C181.801 49.7643 181.581 50.2043 181.141 50.527C180.701 50.8423 180.089 51 179.304 51H176.796ZM177.423 50.549H179.348C179.949 50.549 180.419 50.4317 180.756 50.197C181.093 49.955 181.262 49.6213 181.262 49.196C181.262 48.8733 181.156 48.646 180.943 48.514C180.738 48.3747 180.397 48.305 179.92 48.305H177.874L177.423 50.549ZM177.962 47.876H179.81C180.338 47.876 180.763 47.7587 181.086 47.524C181.416 47.2893 181.581 46.9777 181.581 46.589C181.581 46.2883 181.471 46.0683 181.251 45.929C181.031 45.7823 180.701 45.709 180.261 45.709H178.391L177.962 47.876Z" fill="white"/>
<path d="M14.328 35.504C11.784 35.504 9.552 35.036 7.632 34.1C5.736 33.164 4.26 31.868 3.204 30.212C2.172 28.532 1.656 26.6 1.656 24.416C1.656 22.232 2.04 20.216 2.808 18.368C3.576 16.52 4.668 14.924 6.084 13.58C7.5 12.212 9.18 11.156 11.124 10.412C13.092 9.668 15.276 9.296 17.676 9.296C20.196 9.296 22.368 9.692 24.192 10.484C26.04 11.276 27.528 12.428 28.656 13.94L23.544 17.972C22.704 16.94 21.792 16.22 20.808 15.812C19.824 15.404 18.672 15.2 17.352 15.2C16.056 15.2 14.88 15.416 13.824 15.848C12.792 16.28 11.904 16.892 11.16 17.684C10.416 18.476 9.84 19.412 9.432 20.492C9.048 21.548 8.856 22.7 8.856 23.948C8.856 25.076 9.108 26.072 9.612 26.936C10.116 27.776 10.848 28.436 11.808 28.916C12.768 29.372 13.932 29.6 15.3 29.6C16.404 29.6 17.46 29.42 18.468 29.06C19.5 28.7 20.532 28.1 21.564 27.26L24.264 32.48C22.968 33.44 21.468 34.184 19.764 34.712C18.06 35.24 16.248 35.504 14.328 35.504ZM18.18 31.364L20.088 21.86H26.388L24.264 32.48L18.18 31.364ZM38.7911 35.324C36.7271 35.324 34.9271 34.952 33.3911 34.208C31.8551 33.464 30.6671 32.432 29.8271 31.112C28.9871 29.768 28.5671 28.208 28.5671 26.432C28.5671 24.272 29.0831 22.352 30.1151 20.672C31.1471 18.968 32.5631 17.624 34.3631 16.64C36.1631 15.656 38.2271 15.164 40.5551 15.164C42.6431 15.164 44.4431 15.536 45.9551 16.28C47.4911 17 48.6791 18.02 49.5191 19.34C50.3591 20.66 50.7791 22.22 50.7791 24.02C50.7791 26.18 50.2631 28.112 49.2311 29.816C48.1991 31.52 46.7831 32.864 44.9831 33.848C43.1831 34.832 41.1191 35.324 38.7911 35.324ZM39.1871 29.888C40.0991 29.888 40.9031 29.66 41.5991 29.204C42.2951 28.724 42.8351 28.076 43.2191 27.26C43.6271 26.444 43.8311 25.484 43.8311 24.38C43.8311 23.3 43.5071 22.4 42.8591 21.68C42.2351 20.96 41.3351 20.6 40.1591 20.6C39.2471 20.6 38.4431 20.828 37.7471 21.284C37.0511 21.74 36.4991 22.388 36.0911 23.228C35.7071 24.044 35.5151 25.004 35.5151 26.108C35.5151 27.26 35.8391 28.184 36.4871 28.88C37.1351 29.552 38.0351 29.888 39.1871 29.888ZM62.7325 35.324C60.6685 35.324 58.8685 34.952 57.3325 34.208C55.7965 33.464 54.6085 32.432 53.7685 31.112C52.9285 29.768 52.5085 28.208 52.5085 26.432C52.5085 24.272 53.0245 22.352 54.0565 20.672C55.0885 18.968 56.5045 17.624 58.3045 16.64C60.1045 15.656 62.1685 15.164 64.4965 15.164C66.5845 15.164 68.3845 15.536 69.8965 16.28C71.4325 17 72.6205 18.02 73.4605 19.34C74.3005 20.66 74.7205 22.22 74.7205 24.02C74.7205 26.18 74.2045 28.112 73.1725 29.816C72.1405 31.52 70.7245 32.864 68.9245 33.848C67.1245 34.832 65.0605 35.324 62.7325 35.324ZM63.1285 29.888C64.0405 29.888 64.8445 29.66 65.5405 29.204C66.2365 28.724 66.7765 28.076 67.1605 27.26C67.5685 26.444 67.7725 25.484 67.7725 24.38C67.7725 23.3 67.4485 22.4 66.8005 21.68C66.1765 20.96 65.2765 20.6 64.1005 20.6C63.1885 20.6 62.3845 20.828 61.6885 21.284C60.9925 21.74 60.4405 22.388 60.0325 23.228C59.6485 24.044 59.4565 25.004 59.4565 26.108C59.4565 27.26 59.7805 28.184 60.4285 28.88C61.0765 29.552 61.9765 29.888 63.1285 29.888ZM84.8379 35.324C83.4459 35.324 82.1139 34.976 80.8419 34.28C79.5939 33.584 78.5739 32.576 77.7819 31.256C76.9899 29.936 76.5939 28.328 76.5939 26.432C76.5939 24.8 76.8699 23.3 77.4219 21.932C77.9739 20.564 78.7299 19.376 79.6899 18.368C80.6739 17.36 81.8019 16.58 83.0739 16.028C84.3699 15.452 85.7499 15.164 87.2139 15.164C88.6299 15.164 89.8659 15.404 90.9219 15.884C92.0019 16.364 92.8419 17.144 93.4419 18.224C94.0419 19.28 94.3419 20.672 94.3419 22.4C94.3419 24.128 94.1379 25.772 93.7299 27.332C93.3219 28.868 92.7099 30.236 91.8939 31.436C91.1019 32.636 90.1059 33.584 88.9059 34.28C87.7299 34.976 86.3739 35.324 84.8379 35.324ZM87.2139 29.816C88.1499 29.816 88.9539 29.588 89.6259 29.132C90.3219 28.676 90.8619 28.04 91.2459 27.224C91.6539 26.408 91.8579 25.46 91.8579 24.38C91.8579 23.252 91.5339 22.352 90.8859 21.68C90.2379 20.984 89.3379 20.636 88.1859 20.636C87.2979 20.636 86.4939 20.876 85.7739 21.356C85.0779 21.812 84.5259 22.448 84.1179 23.264C83.7339 24.08 83.5419 25.028 83.5419 26.108C83.5419 27.236 83.8659 28.136 84.5139 28.808C85.1619 29.48 86.0619 29.816 87.2139 29.816ZM90.0939 35L90.7779 31.724L92.0379 25.28L92.9379 18.836L95.0619 8.288H101.902L96.5739 35H90.0939ZM101.299 35L106.339 9.8H119.083C121.939 9.8 124.111 10.316 125.599 11.348C127.087 12.356 127.831 13.808 127.831 15.704C127.831 17.264 127.399 18.584 126.535 19.664C125.671 20.744 124.507 21.572 123.043 22.148C121.579 22.7 119.935 22.976 118.111 22.976L119.119 21.248C121.447 21.248 123.295 21.752 124.663 22.76C126.031 23.768 126.715 25.184 126.715 27.008C126.715 28.832 126.199 30.332 125.167 31.508C124.159 32.684 122.779 33.56 121.027 34.136C119.299 34.712 117.343 35 115.159 35H101.299ZM109.363 29.852H115.555C116.803 29.852 117.787 29.6 118.507 29.096C119.251 28.592 119.623 27.848 119.623 26.864C119.623 26.12 119.347 25.58 118.795 25.244C118.243 24.908 117.535 24.74 116.671 24.74H109.795L110.767 19.808H116.491C117.331 19.808 118.039 19.7 118.615 19.484C119.215 19.268 119.659 18.944 119.947 18.512C120.235 18.08 120.379 17.552 120.379 16.928C120.379 16.232 120.115 15.728 119.587 15.416C119.059 15.104 118.327 14.948 117.391 14.948H112.351L109.363 29.852ZM128.643 35L132.531 15.488H139.335L135.447 35H128.643ZM136.887 13.328C135.687 13.328 134.727 13.004 134.007 12.356C133.311 11.684 132.963 10.88 132.963 9.944C132.963 8.84 133.359 7.916 134.151 7.172C134.967 6.428 136.035 6.056 137.355 6.056C138.555 6.056 139.515 6.368 140.235 6.992C140.955 7.616 141.315 8.396 141.315 9.332C141.315 10.508 140.907 11.468 140.091 12.212C139.275 12.956 138.207 13.328 136.887 13.328ZM146.517 31.688L148.029 23.192L157.137 15.488H165.777L154.905 24.884L151.017 27.728L146.517 31.688ZM139.857 35L145.185 8.288H152.025L146.697 35H139.857ZM154.329 35L149.829 27.512L154.653 22.292L162.321 35H154.329ZM174.041 35.324C171.953 35.324 170.129 34.964 168.569 34.244C167.033 33.5 165.833 32.468 164.969 31.148C164.105 29.804 163.673 28.232 163.673 26.432C163.673 24.272 164.165 22.352 165.149 20.672C166.133 18.968 167.513 17.624 169.289 16.64C171.065 15.656 173.129 15.164 175.481 15.164C177.473 15.164 179.177 15.524 180.593 16.244C182.033 16.964 183.137 17.972 183.905 19.268C184.697 20.54 185.093 22.028 185.093 23.732C185.093 24.308 185.057 24.86 184.985 25.388C184.913 25.916 184.817 26.432 184.697 26.936H169.037L169.685 23.336H181.529L178.685 24.38C178.877 23.444 178.841 22.664 178.577 22.04C178.337 21.392 177.917 20.9 177.317 20.564C176.741 20.204 176.021 20.024 175.157 20.024C174.053 20.024 173.141 20.3 172.421 20.852C171.725 21.404 171.197 22.16 170.837 23.12C170.501 24.056 170.333 25.076 170.333 26.18C170.333 27.524 170.705 28.52 171.449 29.168C172.193 29.792 173.309 30.104 174.797 30.104C175.661 30.104 176.501 29.972 177.317 29.708C178.157 29.42 178.889 29.024 179.513 28.52L182.357 32.804C181.133 33.716 179.801 34.364 178.361 34.748C176.945 35.132 175.505 35.324 174.041 35.324Z" fill="#FC774E"/>
</svg>
